<?xml version="1.0" standalone="no"?><!DOCTYPE svg PUBLIC "-//W3C//DTD SVG 1.1//EN" "http://www.w3.org/Graphics/SVG/1.1/DTD/svg11.dtd"><svg t="1648733759163" class="icon" viewBox="0 0 1024 1024" version="1.1" xmlns="http://www.w3.org/2000/svg" p-id="1151" xmlns:xlink="http://www.w3.org/1999/xlink" width="32" height="32"><defs><style type="text/css">@font-face { font-family: feedback-iconfont; src: url("//at.alicdn.com/t/font_1031158_u69w8yhxdu.woff2?t=1630033759944") format("woff2"), url("//at.alicdn.com/t/font_1031158_u69w8yhxdu.woff?t=1630033759944") format("woff"), url("//at.alicdn.com/t/font_1031158_u69w8yhxdu.ttf?t=1630033759944") format("truetype"); }
</style></defs><path d="M512.897969 966.687508C256.145723 966.687508 47.261538 757.803323 47.261538 501.047138 47.261538 244.290954 256.145723 35.406769 512.897969 35.406769c139.9296 0 271.1552 62.085908 360.0384 170.338462 17.2544 21.011692 14.202092 52.034954-6.8096 69.289354-21.007754 17.2544-52.031015 14.206031-69.289354-6.8096-70.104615-85.385846-173.595569-134.356677-283.935507-134.356677C310.437415 133.868308 145.723077 298.582646 145.723077 501.047138s164.714338 367.178831 367.174892 367.178831c127.168985 0 243.519015-64.405662 311.236923-172.276184 14.454154-23.032123 44.8512-29.983508 67.86757-15.521477 23.032123 14.458092 29.975631 44.843323 15.521476 67.867569-85.838769 136.751262-233.365662 218.391631-394.625969 218.391631z" fill="#c95700" p-id="1152"></path><path d="M449.650215 288.385969l253.963816 196.907323-253.963816 208.754216z" fill="#c95700" p-id="1153"></path></svg>